HIERARCHY
ROOT hip
{
  OFFSET 0 0 0
  CHANNELS 6 Xposition Yposition Zposition Zrotation Yrotation Xrotation
  JOINT abdomen
  {
    OFFSET 0 20.6881 -0.73152
    CHANNELS 3 Zrotation Xrotation Yrotation
    JOINT chest
    {
      OFFSET 0 11.7043 -0.48768
      CHANNELS 3 Zrotation Xrotation Yrotation
      JOINT neck
      {
        OFFSET 0 22.1894 -2.19456
        CHANNELS 3 Zrotation Xrotation Yrotation
        JOINT head
        {
          OFFSET -0.24384 7.07133 1.2192
          CHANNELS 3 Zrotation Xrotation Yrotation
          JOINT leftEye
          {
            OFFSET 4.14528 8.04674 8.04672
            CHANNELS 3 Zrotation Xrotation Yrotation
            End Site
            {
              OFFSET 1 0 0
            }
          }
          JOINT rightEye
          {
            OFFSET -3.6576 8.04674 8.04672
            CHANNELS 3 Zrotation Xrotation Yrotation
            End Site
            {
              OFFSET 1 0 0
            }
          }
        }
      }
      JOINT rCollar
      {
        OFFSET -2.68224 19.2634 -4.8768
        CHANNELS 3 Zrotation Xrotation Yrotation
        JOINT rShldr
        {
          OFFSET -8.77824 -1.95073 1.46304
          CHANNELS 3 Zrotation Xrotation Yrotation
          JOINT rForeArm
          {
            OFFSET -28.1742 -1.7115 0.48768
            CHANNELS 3 Zrotation Xrotation Yrotation
            JOINT rHand
            {
              OFFSET -22.5879 0.773209 7.07136
              CHANNELS 3 Zrotation Xrotation Yrotation
              JOINT rThumb1
              {
                OFFSET -1.2192 -0.487915 3.41376
                CHANNELS 3 Zrotation Xrotation Yrotation
                JOINT rThumb2
                {
                  OFFSET -3.37035 -0.52449 3.41376
                  CHANNELS 3 Zrotation Xrotation Yrotation
                  End Site
                  {
                    OFFSET -1.78271 -1.18214 1.43049
                  }
                }
              }
              JOINT rIndex1
              {
                OFFSET -7.75947 0.938293 5.60832
                CHANNELS 3 Zrotation Xrotation Yrotation
                JOINT rIndex2
                {
                  OFFSET -2.54057 -0.884171 1.56538
                  CHANNELS 3 Zrotation Xrotation Yrotation
                  End Site
                  {
                    OFFSET -1.62519 -0.234802 1.16502
                  }
                }
              }
              JOINT rMid1
              {
                OFFSET -8.24714 1.18213 3.41376
                CHANNELS 3 Zrotation Xrotation Yrotation
                JOINT rMid2
                {
                  OFFSET -3.10165 -0.590103 1.0647
                  CHANNELS 3 Zrotation Xrotation Yrotation
                  End Site
                  {
                    OFFSET -2.48547 -0.328903 0.83742
                  }
                }
              }
              JOINT rRing1
              {
                OFFSET -8.82822 0.546677 1.51678
                CHANNELS 3 Zrotation Xrotation Yrotation
                JOINT rRing2
                {
                  OFFSET -2.60934 -0.819778 -0.0198488
                  CHANNELS 3 Zrotation Xrotation Yrotation
                  End Site
                  {
                    OFFSET -2.33842 -0.294052 0.168128
                  }
                }
              }
              JOINT rPinky1
              {
                OFFSET -8.27202 -0.0477905 -0.4584
                CHANNELS 3 Zrotation Xrotation Yrotation
                JOINT rPinky2
                {
                  OFFSET -1.82734 -0.647385 -0.700984
                  CHANNELS 3 Zrotation Xrotation Yrotation
                  End Site
                  {
                    OFFSET -1.69225 -0.51767 -0.607171
                  }
                }
              }
            }
          }
        }
      }
      JOINT lCollar
      {
        OFFSET 2.68224 19.2634 -4.8768
        CHANNELS 3 Zrotation Xrotation Yrotation
        JOINT lShldr
        {
          OFFSET 8.77824 -1.95073 1.46304
          CHANNELS 3 Zrotation Xrotation Yrotation
          JOINT lForeArm
          {
            OFFSET 28.1742 -1.7115 0.48768
            CHANNELS 3 Zrotation Xrotation Yrotation
            JOINT lHand
            {
              OFFSET 22.5879 0.773209 7.07136
              CHANNELS 3 Zrotation Xrotation Yrotation
              JOINT lThumb1
              {
                OFFSET 1.2192 -0.487915 3.41376
                CHANNELS 3 Zrotation Xrotation Yrotation
                JOINT lThumb2
                {
                  OFFSET 3.37035 -0.52449 3.41376
                  CHANNELS 3 Zrotation Xrotation Yrotation
                  End Site
                  {
                    OFFSET 1.78271 -1.18214 1.43049
                  }
                }
              }
              JOINT lIndex1
              {
                OFFSET 7.75947 0.938293 5.60832
                CHANNELS 3 Zrotation Xrotation Yrotation
                JOINT lIndex2
                {
                  OFFSET 2.54057 -0.884171 1.56538
                  CHANNELS 3 Zrotation Xrotation Yrotation
                  End Site
                  {
                    OFFSET 1.62519 -0.234802 1.16502
                  }
                }
              }
              JOINT lMid1
              {
                OFFSET 8.24714 1.18213 3.41376
                CHANNELS 3 Zrotation Xrotation Yrotation
                JOINT lMid2
                {
                  OFFSET 3.10165 -0.590103 1.0647
                  CHANNELS 3 Zrotation Xrotation Yrotation
                  End Site
                  {
                    OFFSET 2.48547 -0.328903 0.83742
                  }
                }
              }
              JOINT lRing1
              {
                OFFSET 8.82822 0.546677 1.51678
                CHANNELS 3 Zrotation Xrotation Yrotation
                JOINT lRing2
                {
                  OFFSET 2.60934 -0.819778 -0.0198488
                  CHANNELS 3 Zrotation Xrotation Yrotation
                  End Site
                  {
                    OFFSET 2.33842 -0.294052 0.168128
                  }
                }
              }
              JOINT lPinky1
              {
                OFFSET 8.27202 -0.0477905 -0.4584
                CHANNELS 3 Zrotation Xrotation Yrotation
                JOINT lPinky2
                {
                  OFFSET 1.82734 -0.647385 -0.700984
                  CHANNELS 3 Zrotation Xrotation Yrotation
                  End Site
                  {
                    OFFSET 1.69225 -0.51767 -0.607171
                  }
                }
              }
            }
          }
        }
      }
    }
  }
  JOINT rButtock
  {
    OFFSET -8.77824 4.35084 1.2192
    CHANNELS 3 Zrotation Xrotation Yrotation
    JOINT rThigh
    {
      OFFSET 0 -1.70687 -2.19456
      CHANNELS 3 Zrotation Xrotation Yrotation
      JOINT rShin
      {
        OFFSET 0 -36.8199 0.73152
        CHANNELS 3 Zrotation Xrotation Yrotation
        JOINT rFoot
        {
          OFFSET 0.73152 -45.1104 -5.12064
          CHANNELS 3 Zrotation Xrotation Yrotation
          End Site
          {
            OFFSET -1.1221 -3.69964 12.103
          }
        }
      }
    }
  }
  JOINT lButtock
  {
    OFFSET 8.77824 4.35084 1.2192
    CHANNELS 3 Zrotation Xrotation Yrotation
    JOINT lThigh
    {
      OFFSET 0 -1.70687 -2.19456
      CHANNELS 3 Zrotation Xrotation Yrotation
      JOINT lShin
      {
        OFFSET 0 -36.8199 0.73152
        CHANNELS 3 Zrotation Xrotation Yrotation
        JOINT lFoot
        {
          OFFSET -0.73152 -45.1104 -5.12064
          CHANNELS 3 Zrotation Xrotation Yrotation
          End Site
          {
            OFFSET 1.1221 -3.69964 12.103
          }
        }
      }
    }
  }
}
MOTION
Frames:	8
Frame Time:	0.03333
-6.2907 57.5536 6.4553 166.589647 -46.060298 -168.39937 -19.815174 11.949292 -81.643243 8.012868 8.033158 71.872687 -8.157274 2.918424 -6.102061 7.812749 -20.939399 -10.698437 -41.526804 23.108385 -56.669113 -4.734461 0.089575 -2.166567 173.693947 -70.201524 155.97604 -4.150737 12.801425 -47.809934 119.227319 70.020549 -82.951997 -7.834122 72.662743 -6.681956 2.165019 -32.32649 3.610957 6.924544 -13.907595 -17.046238 -142.806377 -13.655044 111.088681 -5.079501 47.737535 30.988617 -13.047585 -67.278965 -15.490825 -178.267803 77.096549 -168.940687 -85.396053 64.012512 91.011564 -22.584833 23.877838 -8.569987 179.015276 51.539249 -136.580579 -30.125096 -41.930457 -20.567587 50.163814 -83.232218 87.311106 -92.339387 50.438255 93.619885 -18.396281 -9.060607 -33.822531 16.819042 33.871128 -10.30711 -24.22626 11.726406 10.596257 152.32725 -35.810276 -146.653953 39.591222 52.197617 -32.751788 2.309748 45.231795 -16.447042 -7.109355 -23.868804 35.628972 65.015686 30.859264 -57.270756 -5.885115 1.873931 0.962286 -167.282055 -0.229062 -170.207043 -0.981466 36.73388 21.25506 58.560613 59.981016 -109.043278 36.306123 2.272797 51.697836 -84.759112 -2.298177 -35.050938 25.017118 59.407829 16.317023 -148.025243 -27.071345 39.500807 -90.731528 33.072961 -66.926478 68.216229 77.075123 -0.0 -38.86582 12.764065 -90.100702 -23.886971 30.316277 -167.417012
-6.6732 58.017700000000005 7.0116 166.995727 -47.510851 -168.759007 -19.983262 10.234514 -116.04056 0.136013 11.33805 107.268623 3.864434 9.219612 63.842891 -30.213108 -3.700899 -87.842958 -38.805032 18.435687 -49.477343 -4.059472 0.117874 -3.325039 -13.001785 16.238475 9.439055 33.159386 52.191959 44.107901 2.319426 -55.979511 33.662199 0.050803 51.235932 -7.233675 88.56242 -50.765536 58.90846 -34.348779 0.845579 -11.163206 -14.977585 27.782695 18.807344 -173.394113 31.815818 127.626698 -171.337697 20.939125 145.859681 -128.139346 56.537245 88.179323 -141.592537 21.751213 162.47324 -175.032651 14.438083 -151.934595 -17.77585 -8.082963 -8.264522 -136.477702 1.703521 -126.633765 -16.99729 -28.837457 9.860239 -81.000456 49.460826 36.627681 -7.487935 -30.331914 -32.975295 8.706724 19.231363 -7.678798 147.6646 -17.383693 -103.7117 153.227164 -26.212758 -66.277311 5.160885 31.157046 -2.081881 6.925795 70.6074 4.170999 162.08058 63.939902 -175.894589 -179.66131 1.110201 -179.879916 141.136843 3.871669 176.234054 -47.536668 20.102769 11.209475 179.53732 7.927271 113.513897 -126.503148 63.532271 117.734725 -7.187155 -22.156477 5.903539 -27.431675 -30.918257 -45.290546 -43.690371 54.20963 -18.709267 140.092962 -60.810681 -104.142486 -35.896111 87.443817 180.0 -67.845549 47.83097 158.944448 -28.608594 -2.255914 135.252614 101.451215 -21.833915 0.925053
-6.3947 57.826299999999996 7.7593 165.833585 -51.513267 -167.509001 -20.996178 12.966956 -84.558091 8.518153 10.493043 76.823353 -14.266289 19.747305 -76.660723 38.469044 -1.849442 48.722766 -27.917739 9.654011 -37.529082 -3.930079 0.282415 -8.217202 -16.788212 33.802323 12.922951 76.684524 -17.047267 37.793114 -173.051971 -2.257989 110.126055 137.708204 -45.409781 122.133487 -177.594183 4.523635 89.496781 18.129662 -43.381415 19.324044 -154.882626 -27.161885 118.998115 -108.870245 23.070346 107.976987 -4.715056 -75.92488 -23.450567 -156.038865 -41.98197 160.805838 4.980104 -0.60481 5.952666 93.56748 -67.587704 70.924279 35.665909 72.974024 -14.329891 -39.229503 -63.278605 -51.731398 145.134413 -4.863945 -164.413702 53.428297 21.656317 -12.07027 124.816854 -25.389704 153.542872 -25.48512 -53.265645 -19.984146 67.176 52.376342 -49.51774 -170.649615 -72.391519 -84.462868 -6.981366 14.591851 2.829164 172.88025 3.043495 -149.977557 15.787701 -53.256521 64.090593 -9.165105 13.640373 -42.167173 66.892745 78.242631 -85.770389 6.25258 -10.286181 32.166538 4.928595 41.217155 22.697824 -10.747575 39.492189 -50.004461 -57.620042 0.772182 -40.388892 47.742846 -33.508668 -57.995813 -63.862363 22.947409 137.775579 -138.937985 -5.985469 51.070698 7.773266 22.626139 59.291055 -8.990713 -2.875112 -0.634567 21.003246 21.464262 -101.295159 95.795007 56.540207 0.24462
-5.6899999999999995 57.4278 8.4913 164.55001 -55.092932 -166.029083 -23.50944 15.749625 -0.0 14.282955 -9.65486 -5.251663 7.210409 20.805063 83.004125 -40.871193 11.436643 -112.939764 -11.091528 1.79033 -18.283655 -4.775004 0.363248 -8.695569 -2.949228 -25.552865 -5.060726 70.126257 31.333507 -15.513024 -178.963107 11.122386 110.236202 144.717418 -41.606178 130.796819 -176.476046 0.007523 91.917573 85.031386 -54.063441 45.311866 -144.888665 -4.41987 122.532076 -135.688669 -0.843141 125.508352 -8.797406 37.094586 -4.707735 -160.428318 5.207501 133.407322 12.611527 -1.47485 0.554985 34.54292 -39.118563 21.500006 30.165568 58.987969 -9.882428 7.481378 -20.101068 -6.735197 80.020135 70.402579 -90.164631 91.004296 15.870363 -97.360958 172.653802 7.417432 148.69025 3.478157 13.862834 -4.464174 112.493509 39.070239 -80.79317 -21.058615 -26.147657 -19.466439 146.512325 -51.511485 -132.399812 168.370304 -24.011178 -67.84689 -40.330559 76.375975 31.963057 39.763114 70.958178 7.867316 143.700812 -11.244696 171.01685 -25.081657 -39.646714 15.826282 101.100014 -29.278384 62.687732 138.146913 14.739164 105.841901 48.590476 36.241249 61.013433 -126.770785 12.902998 66.175812 73.599649 -30.707529 27.252237 0.530637 29.707021 -98.516114 7.162912 43.585696 72.095088 -27.347007 -10.803353 -70.078159 -7.913935 29.251514 -37.103316 97.722248 51.444824 -1.214964
-4.7967 57.27870000000001 9.1525 163.770092 -57.561787 -164.637557 -23.22376 14.795935 5.26896 13.656067 -10.147113 -11.126675 2.885837 35.16335 163.415043 -0.34531 55.105394 156.991479 6.651779 -0.423175 -7.272188 -5.477043 0.365288 -7.625549 -149.65942 38.867589 148.321147 -109.93755 42.810752 71.742519 27.741805 -48.991519 -49.172004 154.447617 -31.053449 141.720731 77.888692 -55.352013 37.774906 -101.882841 24.775131 45.904607 -158.525907 -62.789757 145.604875 53.924532 -30.695291 -1.273416 -7.251253 49.50071 -1.464151 -165.400601 20.838904 141.145426 -57.249576 -68.237433 -93.210609 -132.681074 -4.942323 -179.871204 41.595445 56.206641 -16.187843 -141.308482 15.232706 -142.167459 -6.547843 -26.322044 8.180923 -59.500124 -12.4264 24.226274 121.096227 24.479066 -120.412059 -51.262676 -63.478047 -42.0169 1.963667 15.217957 5.263536 -26.962737 -41.989165 16.101816 134.876382 -29.089478 -131.505854 115.476575 -23.293428 -99.900692 -7.837438 -43.092152 39.779252 149.019909 2.203994 -102.692388 144.366197 -7.673727 173.986464 130.316146 -39.830573 170.184847 5.742667 40.046445 16.046443 114.718415 27.049953 173.844663 -9.074528 -6.36112 10.760497 -49.747664 -42.269226 68.192359 67.244365 -32.028527 -34.066587 -90.081477 36.5195 19.869609 -71.416111 88.53318 -180.0 -77.304366 7.772771 26.681708 40.736504 -17.171269 49.265868 115.787374 61.08157 135.40464
-3.8682000000000003 57.2389 9.7608 163.348855 -59.074649 -163.536718 -22.573046 8.535435 180.0 -14.271601 3.137708 171.986191 -11.286692 23.342565 -49.965363 34.162828 -26.254644 18.269881 17.699879 -1.198674 -7.687301 -5.819406 0.302201 -5.940288 -3.317352 -17.991943 -3.733443 -104.168999 -20.547514 -169.309538 -172.409331 7.706536 -146.572681 -8.75466 50.212885 7.718885 -170.620466 5.366754 94.686658 -166.911937 -28.39669 75.818827 -148.445018 -43.109841 154.869452 88.618624 -71.085513 14.87432 -45.979674 -82.038069 -81.02319 89.994681 -58.319072 60.760482 -121.992103 7.278598 -173.022055 -79.263953 -59.841308 -101.341378 -133.854151 4.082927 -120.442383 -83.402404 -57.195493 -84.333661 82.968839 71.140771 -89.548888 96.293005 11.524069 -93.9633 -10.646318 -16.124062 64.752367 -165.9002 -18.222137 -146.533106 161.890417 -4.684612 -96.393871 143.747144 5.711555 -67.743991 59.755841 50.72836 -67.67599 -16.298409 -1.413394 52.345753 139.808152 52.004116 -152.915374 175.268407 40.323047 -173.753027 143.964572 0.696582 178.181511 -27.121766 -1.550564 12.901547 32.661367 1.21999 18.964833 -5.289712 -41.05795 30.215718 -81.003074 24.999828 -49.612651 82.40125 -27.455063 -180.0 57.95299 -61.316324 159.042306 8.902563 1.148475 98.255635 -77.272683 -16.154257 -0.0 92.596601 10.856979 165.702589 11.819008 -40.6322 61.438057 -102.293921 41.967563 -160.174948
-2.9728 57.2994 10.34 163.189536 -59.904772 -162.820987 -19.975385 10.110497 -76.640134 7.897412 10.582129 67.076356 -11.795022 28.588542 -76.489205 46.719342 -10.791231 39.781141 22.27061 -2.845913 -14.3855 -6.099582 0.231751 -4.347664 -2.031819 -25.223076 -4.567883 171.566608 76.804398 -106.006945 63.663139 -81.487025 95.571938 -18.038485 62.937435 14.964601 -169.372988 8.509154 95.745845 -106.186388 -7.737007 59.598602 -11.823602 -51.809067 -52.969768 -7.472175 24.450694 28.057548 0.765209 45.511798 -2.863294 -15.10792 2.850997 -20.707143 -97.911024 78.707671 145.649241 42.892006 81.523382 -50.674142 -164.553205 46.433847 -122.492749 -154.023537 44.969849 -145.743564 9.41692 45.386183 -13.00295 84.122048 12.128787 -129.251254 -174.176304 -2.888831 148.945958 8.813658 41.575405 -4.417819 4.207304 6.715825 3.418953 134.042247 -52.767885 -121.526288 126.781816 -13.87708 -128.541552 16.504951 60.557496 -49.751112 -1.509755 62.934845 -2.585768 27.255112 -88.459324 30.920666 142.424821 0.392235 178.994873 35.338366 -74.024041 75.852264 91.604203 -35.093823 66.628401 146.738441 14.059417 112.819266 0.444958 -1.5205 16.313659 -65.191184 -39.883363 35.64777 68.53663 -5.675074 -55.65097 -72.374549 10.708747 13.507453 -94.046151 -14.570911 -14.512537 109.168239 21.622552 44.580322 25.414033 17.505451 -89.0241 -25.582341 -59.671055 37.302537
-2.2100999999999997 57.6088 10.7589 163.298316 -60.695458 -163.493071 -22.292911 11.981643 -0.0 15.204332 -6.16266 -8.656243 -3.255278 36.837217 -155.414634 42.90143 42.294147 93.191545 22.301945 -5.88818 -29.245942 -5.849362 0.147062 -2.877906 -154.863323 20.677979 153.992406 151.485969 25.158896 145.684944 152.887362 -34.917587 93.921707 159.555775 -24.75821 150.12316 -175.625769 7.703164 97.72045 -157.634511 -11.76111 71.876738 -148.219499 4.637798 148.938386 12.155195 -85.275983 -53.089435 4.235431 37.442832 -5.939219 -166.102633 79.202454 135.810916 27.423314 10.992519 -3.693674 -173.640991 -27.836197 168.164316 -98.467994 -29.586426 -96.268429 -150.203851 9.31335 -138.464306 39.816062 -81.537959 64.870109 -78.915737 33.792374 73.754744 3.543778 25.294722 -35.558819 2.767254 24.919778 -3.862603 -88.141197 -54.590629 -37.567234 74.803436 45.27454 -31.22688 35.501772 51.563935 -45.180846 8.250628 -30.606469 50.014523 -11.170713 39.652619 6.93653 58.535069 58.254495 -25.521383 -4.830613 1.775446 -0.358518 177.810392 -63.363297 178.79984 -87.303765 73.291682 62.580177 146.203234 -23.726509 158.959366 88.641247 65.779437 51.371639 -172.303809 19.730441 -0.0 63.922456 63.36859 137.255891 -152.163423 26.35786 -164.081405 -1.69293 63.520562 84.296702 -49.405765 -21.176616 -180.0 -36.264045 -15.486617 -14.711445 90.355496 -25.583087 159.338125
